<svg width="272" height="37" viewBox="0 0 272 37" fill="none" xmlns="http://www.w3.org/2000/svg">
<path d="M16.3239 32.5676C25.3391 32.5676 32.6476 25.277 32.6476 16.2839C32.6476 7.2905 25.3391 0 16.3239 0C7.30841 0 0 7.2905 0 16.2839C0 25.277 7.30841 32.5676 16.3239 32.5676Z" fill="#FC8001"/>
<path d="M16.3541 0.906128C8.82239 0.906128 2.71375 6.9998 2.71375 14.5131C2.71375 15.2455 2.7743 15.9666 2.88405 16.6651C4.64777 12.0703 9.46581 8.76673 15.1354 8.76673C19.8701 8.76673 24.0107 11.0698 26.274 14.5055C26.2892 14.5055 26.3006 14.5055 26.3157 14.5055C27.7804 14.5055 29.0143 14.9699 29.9301 15.7628C29.968 15.3512 29.9907 14.9322 29.9907 14.5093C29.9907 6.99602 23.8858 0.906128 16.3541 0.906128Z" fill="#FDCC01"/>
<path d="M29.9339 15.7628C29.0142 14.9662 27.7842 14.5056 26.3194 14.5056C26.3043 14.5056 26.293 14.5056 26.2779 14.5056C22.2659 14.5282 18.0421 18.0054 16.8348 22.2944C16.1913 24.5786 16.5319 26.6325 17.5955 28.0596C17.1867 28.0974 16.7742 28.12 16.354 28.12C9.55661 28.12 3.92106 23.1591 2.88782 16.6651C2.42228 17.877 2.1687 19.1759 2.1687 20.5313C2.1687 23.8613 3.69397 26.8628 6.14652 29.0035C7.66043 30.2079 9.39007 31.1517 11.2711 31.7634C12.8645 32.2807 14.5639 32.5639 16.3276 32.5639C21.2213 32.5639 25.6079 30.4117 28.5979 27.01C29.6273 25.8359 30.494 24.5182 31.1564 23.0835C31.2548 22.823 31.3418 22.5625 31.4137 22.2944C32.1821 19.561 31.5386 17.1521 29.9339 15.7628Z" fill="#FD0024"/>
<path d="M118.543 14.9964V28.4071C118.543 28.5429 118.433 28.6523 118.297 28.6523H115.156C115.02 28.6523 114.91 28.5429 114.91 28.4071V16.1705C114.91 12.3007 112.783 10.0203 109.123 10.0203C105.641 10.0203 102.916 12.4328 102.916 16.2573V28.4071C102.916 28.5429 102.806 28.6523 102.67 28.6523H99.5285C99.3922 28.6523 99.2825 28.5429 99.2825 28.4071V16.1705C99.2825 12.3007 97.1555 10.0203 93.4955 10.0203C90.1043 10.0203 87.2658 12.3422 87.2658 16.2573V28.4071C87.2658 28.5429 87.1561 28.6523 87.0198 28.6523H83.901C83.7649 28.6523 83.6552 28.5429 83.6552 28.4071V7.27923C83.6552 7.14332 83.7649 7.03383 83.901 7.03383H86.997C87.1334 7.03383 87.2431 7.14332 87.2431 7.27923V9.08014C87.2431 9.30668 87.5231 9.41239 87.6707 9.2425C89.4004 7.28301 91.8946 6.58832 94.1389 6.58832C97.5377 6.58832 100.255 8.03056 101.712 10.4431C101.811 10.6055 102.038 10.6055 102.136 10.4431C103.911 7.5473 107.026 6.58832 109.774 6.58832C114.974 6.59209 118.543 9.9523 118.543 14.9964Z" fill="white"/>
<path d="M144.015 17.5411C144.015 23.8877 139.382 28.49 133.482 28.49C130.428 28.49 128.104 27.4102 126.476 25.7075C126.325 25.549 126.056 25.6621 126.056 25.8812V36.649C126.056 36.7848 125.946 36.8943 125.81 36.8943H122.691C122.555 36.8943 122.445 36.7848 122.445 36.649V7.28302C122.445 7.1471 122.555 7.03761 122.691 7.03761H125.81C125.946 7.03761 126.056 7.1471 126.056 7.28302V9.20097C126.056 9.41995 126.325 9.53323 126.476 9.37466C128.107 7.67568 130.431 6.5921 133.482 6.5921C139.379 6.5921 144.015 11.1944 144.015 17.5411ZM125.833 17.5411C125.833 21.8527 128.804 25.1071 133.062 25.1071C137.429 25.1071 140.291 21.7243 140.291 17.5411C140.291 13.3616 137.365 9.99761 133.062 9.99761C128.804 9.99761 125.833 13.2483 125.833 17.5411Z" fill="white"/>
<path d="M184.977 11.4738C184.909 11.5984 184.754 11.6361 184.634 11.5606C183.245 10.6922 180.693 9.75591 178.067 9.75591C175.182 9.75591 173.321 10.9716 173.321 12.8745C173.321 14.5546 174.85 15.3286 177.401 15.6382L179.841 15.9478C184.319 16.5443 186.961 18.4245 186.961 21.898C186.961 25.9 183.37 28.49 177.628 28.49C175.092 28.49 171.686 27.8973 168.946 25.9302C168.839 25.8547 168.813 25.7036 168.881 25.5942L170.3 23.3213C170.376 23.2006 170.539 23.1704 170.657 23.2533C172.208 24.3974 174.282 25.3261 177.65 25.3261C181.11 25.3261 183.237 24.1973 183.237 22.1206C183.237 20.5728 181.863 19.5986 179.001 19.2437L176.564 18.9568C171.841 18.383 169.558 16.2574 169.558 13.0746C169.558 9.04989 172.909 6.61469 178.029 6.61469C181.254 6.61469 184.206 7.4453 186.241 8.76673C186.351 8.83846 186.385 8.98193 186.322 9.0952L184.977 11.4738Z" fill="white"/>
<path d="M203.47 11.4738C203.402 11.5984 203.247 11.6361 203.125 11.5606C201.736 10.6922 199.186 9.75591 196.559 9.75591C193.675 9.75591 191.813 10.9716 191.813 12.8745C191.813 14.5546 193.343 15.3286 195.893 15.6382L198.334 15.9478C202.812 16.5443 205.453 18.4245 205.453 21.898C205.453 25.9 201.861 28.49 196.12 28.49C193.584 28.49 190.177 27.8973 187.437 25.9302C187.332 25.8547 187.306 25.7036 187.374 25.5942L188.793 23.3213C188.868 23.2006 189.031 23.1704 189.148 23.2533C190.7 24.3974 192.774 25.3261 196.143 25.3261C199.602 25.3261 201.73 24.1973 201.73 22.1206C201.73 20.5728 200.356 19.5986 197.494 19.2437L195.056 18.9568C190.334 18.383 188.051 16.2574 188.051 13.0746C188.051 9.04989 191.4 6.61469 196.522 6.61469C199.745 6.61469 202.699 7.4453 204.734 8.76673C204.844 8.83846 204.878 8.98193 204.814 9.0952L203.47 11.4738Z" fill="white"/>
<path d="M54.6106 22.9514C54.516 22.8569 54.3646 22.8569 54.27 22.9514C51.159 25.8849 46.7572 25.8018 43.8354 22.8871C40.8415 19.9008 40.8264 15.4117 43.9451 12.2969C47.007 9.24248 51.3784 9.21604 54.3721 12.0363C54.4706 12.127 54.6182 12.1307 54.7127 12.0363L56.7793 9.97492C56.8778 9.87675 56.8778 9.71441 56.7755 9.61625C52.2641 5.28952 45.6899 5.33482 41.326 9.68421C36.9054 14.094 36.9205 20.7729 41.4357 25.277C45.8867 29.717 52.4684 29.8115 56.8929 25.5866C56.9951 25.4922 56.9951 25.3262 56.8966 25.228L54.6106 22.9514Z" fill="white"/>
<path d="M62.3052 17.5335C62.4376 17.5335 62.5437 17.4278 62.5474 17.2918C62.6685 13.0218 65.8401 9.97869 69.9694 9.97869C74.2046 9.97869 77.3989 13.1426 77.3989 17.5448C77.3989 21.8641 74.3256 24.9674 70.2116 25.0844C70.0791 25.0883 69.9694 25.1941 69.9694 25.3262V28.2409C69.9694 28.3805 70.0867 28.4938 70.2229 28.49C76.4792 28.3654 81.1004 23.699 81.1004 17.5448C81.1004 11.3077 76.3543 6.59583 69.9694 6.59583C63.6752 6.59583 58.9519 11.1717 58.8194 17.2767C58.8156 17.4165 58.9329 17.5335 59.0692 17.5335H62.3052Z" fill="white"/>
<path d="M166.466 7.03377H163.348C163.211 7.03377 163.101 7.14326 163.101 7.27917V9.15559C161.183 7.44152 158.629 6.4259 155.745 6.4259C149.492 6.4259 144.768 11.1604 144.768 17.5297C144.768 23.8084 149.355 28.5202 155.479 28.6523C155.62 28.656 155.737 28.539 155.737 28.4032V25.1788C155.737 25.0467 155.63 24.9409 155.494 24.9372C151.214 24.8164 148.163 21.6526 148.163 17.5297C148.163 13.3049 151.335 10.1183 155.748 10.1183C159.51 10.1183 163.106 12.7423 163.106 15.7363V18.821V28.4032C163.106 28.539 163.216 28.6485 163.352 28.6485H166.47C166.606 28.6485 166.716 28.539 166.716 28.4032V16.2535V7.27539C166.716 7.14703 166.603 7.03377 166.466 7.03377Z" fill="white"/>
<path d="M72.3122 19.7989L73.368 15.8722C73.5952 15.0303 72.8231 14.2601 71.9791 14.4866L68.0429 15.54C67.1989 15.7665 66.915 16.8162 67.5358 17.4353L70.4159 20.3085C71.0329 20.9201 72.0889 20.6408 72.3122 19.7989Z" fill="#FDCC01"/>
<path d="M210.812 28.6938C212.276 28.6938 213.462 27.5105 213.462 26.0509C213.462 24.5913 212.276 23.4081 210.812 23.4081C209.349 23.4081 208.163 24.5913 208.163 26.0509C208.163 27.5105 209.349 28.6938 210.812 28.6938Z" fill="white"/>
<path d="M269.996 20.8711C267.433 20.8711 266.256 19.561 266.256 17.0049V1.27612H258.406V12.9575C256.624 9.13674 252.736 6.48633 248.229 6.48633C243.721 6.48633 239.838 9.13297 238.051 12.9575V6.72419H230.301V17.7147C230.301 19.6968 229.256 21.041 227.503 21.041C225.751 21.041 224.706 19.6968 224.706 17.7147V6.72419H216.857V17.8166C216.857 24.605 221.036 28.8751 227.503 28.8751C232.696 28.8751 236.405 25.9982 237.62 21.343C239.138 25.7264 243.313 28.8751 248.225 28.8751C253.073 28.8751 257.202 25.8093 258.769 21.5166C259.928 26.5003 263.709 28.7052 268.776 28.7052H270.764V20.8748H269.996V20.8711ZM248.229 21.041C246.375 21.041 244.86 19.5269 244.86 17.6808C244.86 15.8308 246.378 14.3205 248.229 14.3205C250.084 14.3205 251.597 15.8345 251.597 17.6808C251.597 19.5269 250.079 21.041 248.229 21.041Z" fill="white"/>
</svg>
